<svg width="153" height="20" viewBox="0 0 153 20" fill="none" xmlns="http://www.w3.org/2000/svg">
<path d="M25.0303 16.264L23.2303 16.288L27.0223 0.999999H33.5743L28.5103 19H20.5423L15.8863 4.384H18.2863L13.6302 19H5.66225L0.59825 0.999999H7.17425L10.9663 16.264L9.16625 16.24L13.8463 0.999999H20.3263L25.0303 16.264ZM38.2218 8.032H51.3738V13.192H38.2218V8.032ZM51.8538 0.999999V6.16H38.5578L41.3898 3.4V19H35.1978V0.999999H51.8538ZM78.0116 11.224C77.9476 12.28 77.7236 13.304 77.3396 14.296C76.9716 15.272 76.4196 16.152 75.6836 16.936C74.9636 17.704 74.0436 18.312 72.9236 18.76C71.8036 19.208 70.4756 19.432 68.9396 19.432C67.5476 19.432 66.2276 19.232 64.9796 18.832C63.7476 18.432 62.6516 17.84 61.6916 17.056C60.7476 16.256 60.0036 15.272 59.4596 14.104C58.9156 12.92 58.6436 11.552 58.6436 10C58.6436 8.448 58.9156 7.088 59.4596 5.92C60.0036 4.736 60.7636 3.752 61.7396 2.968C62.7156 2.168 63.8436 1.568 65.1236 1.168C66.4036 0.768 67.7876 0.568 69.2756 0.568C71.3556 0.568 73.1316 0.88 74.6036 1.504C76.0916 2.112 77.2836 2.952 78.1796 4.024C79.0916 5.096 79.6916 6.336 79.9796 7.744H73.7636C73.6196 7.296 73.3316 6.92 72.8996 6.616C72.4836 6.296 71.9716 6.056 71.3636 5.896C70.7556 5.72 70.0756 5.632 69.3236 5.632C68.3956 5.632 67.5956 5.792 66.9236 6.112C66.2516 6.416 65.7316 6.888 65.3636 7.528C65.0116 8.168 64.8356 8.992 64.8356 10C64.8356 11.024 65.0356 11.872 65.4356 12.544C65.8516 13.216 66.4356 13.712 67.1876 14.032C67.9556 14.352 68.8596 14.512 69.8996 14.512C70.9076 14.512 71.8036 14.4 72.5876 14.176C73.3716 13.936 74.0036 13.576 74.4836 13.096C74.9796 12.6 75.2836 11.976 75.3956 11.224H78.0116ZM70.2836 12.88V9.376H80.1236V19H75.8276L74.9156 12.112L75.9956 12.88H70.2836ZM88.6576 10.744C88.6576 11.4 88.7696 11.968 88.9936 12.448C89.2336 12.912 89.5936 13.272 90.0736 13.528C90.5536 13.784 91.1696 13.912 91.9216 13.912C92.6896 13.912 93.3136 13.792 93.7936 13.552C94.2736 13.296 94.6256 12.928 94.8496 12.448C95.0736 11.968 95.1856 11.4 95.1856 10.744V0.999999H101.378V11.08C101.378 12.76 100.986 14.224 100.202 15.472C99.4176 16.72 98.3136 17.696 96.8896 18.4C95.4816 19.088 93.8256 19.432 91.9216 19.432C90.0336 19.432 88.3776 19.088 86.9536 18.4C85.5456 17.696 84.4416 16.72 83.6416 15.472C82.8576 14.224 82.4656 12.76 82.4656 11.08V0.999999H88.6576V10.744ZM104.034 0.999999H110.226V19H104.034V0.999999ZM122.656 0.999999C124.848 0.999999 126.76 1.376 128.392 2.128C130.04 2.864 131.32 3.904 132.232 5.248C133.144 6.592 133.6 8.176 133.6 10C133.6 11.808 133.144 13.392 132.232 14.752C131.32 16.096 130.04 17.144 128.392 17.896C126.76 18.632 124.848 19 122.656 19H113.104V0.999999H122.656ZM119.248 16.24L116.464 13.48H123.136C124.016 13.48 124.768 13.344 125.392 13.072C126.032 12.784 126.52 12.384 126.856 11.872C127.192 11.344 127.36 10.72 127.36 10C127.36 9.264 127.192 8.64 126.856 8.128C126.52 7.616 126.032 7.224 125.392 6.952C124.768 6.664 124.016 6.52 123.136 6.52H116.464L119.248 3.76V16.24ZM151.613 7.864V12.136H138.053V7.864H151.613ZM142.301 10L141.197 16.696L138.845 14.104H152.501V19H135.077L136.397 10L135.077 0.999999H152.381V5.896H138.845L141.197 3.304L142.301 10Z" fill="white"/>
</svg>
