<svg width="268" height="20" viewBox="0 0 268 20" fill="none" xmlns="http://www.w3.org/2000/svg">
<path d="M24.7099 16.264L22.9099 16.288L26.7019 0.999999H33.2539L28.1899 19H20.2219L15.5659 4.384H17.9659L13.3099 19H5.34194L0.277938 0.999999H6.85394L10.6459 16.264L8.84594 16.24L13.5259 0.999999H20.0059L24.7099 16.264ZM50.9335 7.864V12.136H37.3735V7.864H50.9335ZM41.6215 10L40.5175 16.696L38.1655 14.104H51.8215V19H34.3975L35.7175 10L34.3975 0.999999H51.7015V5.896H38.1655L40.5175 3.304L41.6215 10ZM67.4101 10.264L67.8901 9.16C69.2501 9.208 70.3861 9.424 71.2981 9.808C72.2101 10.192 72.8901 10.728 73.3381 11.416C73.8021 12.088 74.0341 12.896 74.0341 13.84C74.0341 14.816 73.8101 15.696 73.3621 16.48C72.9301 17.264 72.2661 17.88 71.3701 18.328C70.4741 18.776 69.3541 19 68.0101 19H53.8741L55.2421 9.76L53.8741 0.999999H67.5061C69.1701 0.999999 70.4741 1.392 71.4181 2.176C72.3621 2.944 72.8341 4.016 72.8341 5.392C72.8341 6.176 72.6581 6.912 72.3061 7.6C71.9541 8.288 71.3781 8.872 70.5781 9.352C69.7941 9.816 68.7381 10.12 67.4101 10.264ZM59.9221 17.656L57.5701 14.896H66.0421C66.5701 14.896 66.9861 14.76 67.2901 14.488C67.5941 14.2 67.7461 13.816 67.7461 13.336C67.7461 12.904 67.5941 12.536 67.2901 12.232C67.0021 11.928 66.5701 11.776 65.9941 11.776H58.8901V7.744H65.0821C65.4981 7.744 65.8421 7.616 66.1141 7.36C66.4021 7.104 66.5461 6.776 66.5461 6.376C66.5461 6.008 66.4181 5.704 66.1621 5.464C65.9061 5.224 65.5461 5.104 65.0821 5.104H57.5941L59.9221 2.344L61.1461 9.76L59.9221 17.656ZM79.1515 8.032H92.3035V13.192H79.1515V8.032ZM92.7835 0.999999V6.16H79.4875L82.3195 3.4V19H76.1275V0.999999H92.7835ZM101.304 0.999999V16.264L98.5199 13.48H111.912V19H95.1119V0.999999H101.304ZM123.478 19.432C121.286 19.432 119.366 19.04 117.718 18.256C116.086 17.472 114.814 16.376 113.902 14.968C112.99 13.544 112.534 11.888 112.534 10C112.534 8.112 112.99 6.464 113.902 5.056C114.814 3.632 116.086 2.528 117.718 1.744C119.366 0.96 121.286 0.568 123.478 0.568C125.67 0.568 127.582 0.96 129.214 1.744C130.862 2.528 132.142 3.632 133.054 5.056C133.966 6.464 134.422 8.112 134.422 10C134.422 11.888 133.966 13.544 133.054 14.968C132.142 16.376 130.862 17.472 129.214 18.256C127.582 19.04 125.67 19.432 123.478 19.432ZM123.478 13.912C124.454 13.912 125.294 13.76 125.998 13.456C126.702 13.136 127.238 12.688 127.606 12.112C127.99 11.52 128.182 10.816 128.182 10C128.182 9.184 127.99 8.488 127.606 7.912C127.238 7.32 126.702 6.872 125.998 6.568C125.294 6.248 124.454 6.088 123.478 6.088C122.502 6.088 121.662 6.248 120.958 6.568C120.254 6.872 119.71 7.32 119.326 7.912C118.958 8.488 118.774 9.184 118.774 10C118.774 10.816 118.958 11.52 119.326 12.112C119.71 12.688 120.254 13.136 120.958 13.456C121.662 13.76 122.502 13.912 123.478 13.912ZM159.218 16.264L157.418 16.288L161.21 0.999999H167.762L162.698 19H154.73L150.074 4.384H152.474L147.818 19H139.85L134.786 0.999999H141.362L145.154 16.264L143.354 16.24L148.034 0.999999H154.514L159.218 16.264ZM193.332 11.224C193.268 12.28 193.044 13.304 192.66 14.296C192.292 15.272 191.74 16.152 191.004 16.936C190.284 17.704 189.364 18.312 188.244 18.76C187.124 19.208 185.796 19.432 184.26 19.432C182.868 19.432 181.548 19.232 180.3 18.832C179.068 18.432 177.972 17.84 177.012 17.056C176.068 16.256 175.324 15.272 174.78 14.104C174.236 12.92 173.964 11.552 173.964 10C173.964 8.448 174.236 7.088 174.78 5.92C175.324 4.736 176.084 3.752 177.06 2.968C178.036 2.168 179.164 1.568 180.444 1.168C181.724 0.768 183.108 0.568 184.596 0.568C186.676 0.568 188.452 0.88 189.924 1.504C191.412 2.112 192.604 2.952 193.5 4.024C194.412 5.096 195.012 6.336 195.3 7.744H189.084C188.94 7.296 188.652 6.92 188.22 6.616C187.804 6.296 187.292 6.056 186.684 5.896C186.076 5.72 185.396 5.632 184.644 5.632C183.716 5.632 182.916 5.792 182.244 6.112C181.572 6.416 181.052 6.888 180.684 7.528C180.332 8.168 180.156 8.992 180.156 10C180.156 11.024 180.356 11.872 180.756 12.544C181.172 13.216 181.756 13.712 182.508 14.032C183.276 14.352 184.18 14.512 185.22 14.512C186.228 14.512 187.124 14.4 187.908 14.176C188.692 13.936 189.324 13.576 189.804 13.096C190.3 12.6 190.604 11.976 190.716 11.224H193.332ZM185.604 12.88V9.376H195.444V19H191.148L190.236 12.112L191.316 12.88H185.604ZM203.978 10.744C203.978 11.4 204.09 11.968 204.314 12.448C204.554 12.912 204.914 13.272 205.394 13.528C205.874 13.784 206.49 13.912 207.242 13.912C208.01 13.912 208.634 13.792 209.114 13.552C209.594 13.296 209.946 12.928 210.17 12.448C210.394 11.968 210.506 11.4 210.506 10.744V0.999999H216.698V11.08C216.698 12.76 216.306 14.224 215.522 15.472C214.738 16.72 213.634 17.696 212.21 18.4C210.802 19.088 209.146 19.432 207.242 19.432C205.354 19.432 203.698 19.088 202.274 18.4C200.866 17.696 199.762 16.72 198.962 15.472C198.178 14.224 197.786 12.76 197.786 11.08V0.999999H203.978V10.744ZM219.354 0.999999H225.546V19H219.354V0.999999ZM237.976 0.999999C240.168 0.999999 242.08 1.376 243.712 2.128C245.36 2.864 246.64 3.904 247.552 5.248C248.464 6.592 248.92 8.176 248.92 10C248.92 11.808 248.464 13.392 247.552 14.752C246.64 16.096 245.36 17.144 243.712 17.896C242.08 18.632 240.168 19 237.976 19H228.424V0.999999H237.976ZM234.568 16.24L231.784 13.48H238.456C239.336 13.48 240.088 13.344 240.712 13.072C241.352 12.784 241.84 12.384 242.176 11.872C242.512 11.344 242.68 10.72 242.68 10C242.68 9.264 242.512 8.64 242.176 8.128C241.84 7.616 241.352 7.224 240.712 6.952C240.088 6.664 239.336 6.52 238.456 6.52H231.784L234.568 3.76V16.24ZM266.934 7.864V12.136H253.374V7.864H266.934ZM257.622 10L256.518 16.696L254.166 14.104H267.822V19H250.398L251.718 10L250.398 0.999999H267.702V5.896H254.166L256.518 3.304L257.622 10Z" fill="white"/>
</svg>
